<?xml version="1.0" encoding="utf-8"?>
<!-- Generator: Adobe Illustrator 24.0.1, SVG Export Plug-In . SVG Version: 6.00 Build 0)  -->
<svg version="1.1" xmlns="http://www.w3.org/2000/svg" xmlns:xlink="http://www.w3.org/1999/xlink" x="0px" y="0px"
	 viewBox="0 0 391 70" style="enable-background:new 0 0 391 70;" xml:space="preserve">
<g id="Layer_1">
	<g>
		<g>
			<path d="M231.84,53.3V2.88h11.25c0.57,0,1.09,0.31,1.36,0.8l17.77,32.03V2.88h10.65c0.56,0,1.02,0.46,1.02,1.02V53.3h-12.23
				l-18.14-32.41V53.3H231.84z"/>
			<path d="M276.04,7.07c0-1.97,0.67-3.62,2.02-4.96c1.35-1.34,3.03-2,5.04-2c1.01,0,1.95,0.18,2.81,0.53
				c0.87,0.35,1.62,0.84,2.27,1.46c0.64,0.62,1.15,1.37,1.51,2.23c0.36,0.87,0.54,1.78,0.54,2.74c0,0.96-0.18,1.86-0.54,2.71
				c-0.36,0.84-0.87,1.59-1.51,2.23c-0.65,0.65-1.4,1.15-2.27,1.51c-0.87,0.36-1.81,0.54-2.81,0.54c-1.01,0-1.93-0.18-2.78-0.54
				c-0.84-0.36-1.59-0.87-2.23-1.51c-0.65-0.64-1.15-1.39-1.51-2.23C276.22,8.93,276.04,8.03,276.04,7.07z M277.62,53.3V18.6h9.74
				c0.7,0,1.27,0.57,1.27,1.27V53.3H277.62z"/>
			<path d="M290.14,35.93c0-2.6,0.39-5.02,1.18-7.24c0.79-2.23,1.92-4.14,3.41-5.75c1.49-1.6,3.26-2.88,5.33-3.81
				c2.06-0.94,4.37-1.41,6.93-1.41c2.2,0,4.3,0.52,6.29,1.55c1.99,1.03,3.47,2.46,4.43,4.29V18.6h9.87c0.63,0,1.14,0.51,1.14,1.14
				v33.35c0,3.16-0.45,5.79-1.35,7.88c-0.9,2.09-2.27,3.83-4.1,5.24c-1.64,1.24-3.59,2.17-5.84,2.79c-2.25,0.62-4.99,0.93-8.23,0.93
				c-3.26,0-5.98-0.36-8.16-1.07c-2.18-0.72-4-1.71-5.45-2.97c-1.55-1.29-2.75-2.78-3.6-4.48c-0.86-1.7-1.33-3.51-1.42-5.43h11
				c0.14,1.33,0.85,2.53,2.13,3.61c1.28,1.08,3.11,1.63,5.5,1.63c2.6,0,4.67-0.6,6.21-1.8c1.53-1.2,2.3-3.11,2.3-5.73v-5.55
				c-0.96,1.59-2.4,2.89-4.32,3.88c-1.92,1-4.01,1.49-6.26,1.49c-2.48,0-4.78-0.43-6.87-1.3c-2.1-0.87-3.89-2.08-5.38-3.64
				c-1.49-1.56-2.65-3.4-3.48-5.54C290.56,40.9,290.14,38.53,290.14,35.93z M301.14,35.93c0,1.2,0.19,2.34,0.58,3.43
				s0.94,2.03,1.65,2.81c0.71,0.79,1.58,1.42,2.58,1.9c1.01,0.48,2.13,0.72,3.38,0.72c1.24,0,2.38-0.24,3.43-0.72
				c1.04-0.48,1.92-1.11,2.64-1.9c0.71-0.79,1.28-1.72,1.69-2.79c0.41-1.08,0.62-2.23,0.62-3.45c0-1.2-0.21-2.32-0.62-3.38
				c-0.41-1.05-0.97-1.99-1.69-2.81c-0.72-0.82-1.59-1.46-2.64-1.93c-1.04-0.47-2.19-0.7-3.43-0.7c-1.24,0-2.37,0.23-3.38,0.7
				c-1.01,0.47-1.87,1.11-2.58,1.93c-0.72,0.82-1.27,1.76-1.65,2.81S301.14,34.74,301.14,35.93z"/>
			<path d="M332.16,53.3V2.88h9.28c0.76,0,1.37,0.61,1.37,1.37v19.37c0.96-1.83,2.4-3.27,4.32-4.32s4.23-1.58,6.93-1.58
				c2.25,0,4.14,0.35,5.68,1.05s2.78,1.68,3.74,2.92c1.1,1.34,1.85,2.9,2.23,4.68c0.39,1.78,0.58,3.91,0.58,6.4V53.3h-10.65V35.51
				c0-2.48-0.45-4.51-1.34-6.06c-0.89-1.56-2.48-2.34-4.78-2.34c-2.25,0-3.93,0.79-5.04,2.37s-1.67,3.71-1.67,6.38V53.3H332.16z"/>
			<path d="M366.02,27.32V18.6h5.41V8.83h9.71c0.72,0,1.3,0.58,1.3,1.3v8.48h6.63c0.69,0,1.24,0.56,1.24,1.24v7.48h-7.88v12.08
				c0,1.25,0.12,2.25,0.35,2.99c0.23,0.74,0.57,1.31,1,1.71c0.43,0.4,0.94,0.67,1.51,0.82c0.57,0.15,1.2,0.22,1.88,0.22
				s1.38-0.02,2.09-0.05s1.34-0.1,1.88-0.19v8.4c-0.82,0.14-1.85,0.27-3.08,0.39c-1.23,0.12-2.65,0.17-4.27,0.17
				c-1.29,0-2.66-0.09-4.12-0.28s-2.8-0.67-4.02-1.45s-2.23-1.98-3.03-3.6c-0.8-1.62-1.2-3.84-1.2-6.67V27.32H366.02z"/>
		</g>
		<g>
			<path d="M-0.1,30.02c0-3.45,0.6-6.76,1.79-9.93c1.19-3.18,2.92-5.99,5.19-8.44c2.27-2.45,5.03-4.4,8.3-5.85
				c3.27-1.45,6.96-2.18,11.09-2.18c3.89,0,7.36,0.55,10.41,1.65c3.05,1.1,5.64,2.58,7.77,4.45c2.13,1.86,3.83,4.07,5.08,6.63
				c1.25,2.55,2.07,5.26,2.44,8.12H39.8c-0.28-1.48-0.77-2.84-1.48-4.1c-0.7-1.25-1.59-2.34-2.67-3.27
				c-1.08-0.93-2.35-1.65-3.81-2.18c-1.46-0.53-3.08-0.79-4.83-0.79c-2.44,0-4.61,0.44-6.52,1.32c-1.91,0.88-3.51,2.05-4.8,3.52
				c-1.29,1.46-2.27,3.16-2.95,5.08c-0.68,1.92-1.02,3.91-1.02,5.98c0,2.2,0.35,4.28,1.05,6.22c0.7,1.95,1.74,3.65,3.11,5.12
				c1.37,1.46,3.02,2.62,4.96,3.46s4.18,1.27,6.73,1.27c1.43,0,2.79-0.23,4.1-0.69s2.49-1.08,3.57-1.88c1.08-0.8,2-1.73,2.78-2.81
				c0.77-1.08,1.32-2.24,1.65-3.48h12.38c-0.47,2.7-1.39,5.22-2.76,7.56c-1.37,2.34-3.13,4.39-5.29,6.15
				c-2.16,1.76-4.68,3.14-7.56,4.15s-6.05,1.51-9.49,1.51c-4.27,0-8.07-0.72-11.41-2.16c-3.34-1.44-6.17-3.38-8.5-5.8
				c-2.33-2.43-4.1-5.24-5.31-8.46C0.5,36.97-0.1,33.58-0.1,30.02z"/>
			<path d="M85.11,29.32V20.6h6.26v-3.02c0-3.16,0.42-5.64,1.27-7.42c0.84-1.78,1.91-3.13,3.2-4.04c1.29-0.91,2.7-1.48,4.24-1.69
				c1.53-0.21,3.01-0.32,4.41-0.32c1.29,0,2.44,0.1,3.45,0.29c0.66,0.13,1.24,0.26,1.76,0.41c0.46,0.13,0.77,0.55,0.77,1.02v7.43
				c-0.59-0.14-1.13-0.24-1.63-0.32c-0.5-0.08-1.1-0.12-1.78-0.12c-0.63,0-1.23,0.04-1.79,0.12c-0.56,0.08-1.06,0.26-1.49,0.56
				c-0.43,0.29-0.79,0.71-1.05,1.27c-0.27,0.55-0.4,1.31-0.4,2.28v3.55h8.16v8.72h-8.09V55.3h-11V29.32H85.11z"/>
			<path d="M106.77,29.32V20.6h6.26v-3.02c0-3.16,0.42-5.64,1.27-7.42c0.84-1.78,1.91-3.13,3.2-4.04c1.29-0.91,2.7-1.48,4.24-1.69
				c1.53-0.21,3.01-0.32,4.41-0.32c1.29,0,2.44,0.1,3.45,0.29c0.69,0.13,1.31,0.28,1.84,0.44c0.41,0.12,0.69,0.49,0.69,0.92v7.51
				c-0.59-0.14-1.13-0.24-1.63-0.32c-0.5-0.08-1.1-0.12-1.78-0.12c-0.63,0-1.23,0.04-1.79,0.12c-0.56,0.08-1.06,0.26-1.49,0.56
				c-0.43,0.29-0.79,0.71-1.05,1.27c-0.27,0.55-0.4,1.31-0.4,2.28v3.55h7.2c0.53,0,0.95,0.43,0.95,0.95v7.77h-8.09V55.3h-11V29.32
				H106.77z"/>
			<path d="M129.03,37.93c0-2.55,0.39-4.93,1.18-7.14c0.79-2.2,1.96-4.13,3.53-5.78c1.56-1.65,3.49-2.96,5.78-3.92
				c2.29-0.96,4.95-1.44,7.99-1.44c2.74,0,5.2,0.43,7.38,1.3c2.18,0.87,4.05,2.02,5.6,3.46s2.76,3.12,3.6,5.04
				c0.84,1.92,1.26,3.94,1.26,6.05c0,0.73-0.01,1.49-0.04,2.3c-0.02,0.81-0.13,1.74-0.32,2.79h-24.96c0.05,0.95,0.2,1.85,0.47,2.69
				c0.27,0.84,0.7,1.58,1.3,2.21c0.6,0.63,1.37,1.13,2.33,1.49c0.96,0.36,2.15,0.54,3.58,0.54c1.92,0,3.37-0.31,4.35-0.92
				c0.98-0.61,1.66-1.36,2.03-2.25h9.51c0.7,0,1.22,0.66,1.05,1.34c-0.3,1.15-0.77,2.23-1.42,3.27c-0.89,1.43-2.07,2.68-3.53,3.76
				c-1.46,1.08-3.19,1.93-5.18,2.57c-1.99,0.63-4.24,0.95-6.74,0.95c-3.03,0-5.72-0.45-8.06-1.34c-2.34-0.89-4.3-2.15-5.89-3.78
				c-1.59-1.63-2.79-3.56-3.6-5.8C129.44,43.09,129.03,40.63,129.03,37.93z M140.04,34.27h14.52c0-2.25-0.66-4.03-1.98-5.33
				S149.54,27,147.44,27c-2.15,0-3.92,0.63-5.31,1.88C140.73,30.13,140.04,31.93,140.04,34.27z"/>
			<path d="M164.86,37.93c0-2.55,0.39-4.93,1.18-7.14c0.79-2.2,1.96-4.13,3.53-5.78c1.56-1.65,3.49-2.96,5.78-3.92
				c2.29-0.96,4.95-1.44,7.99-1.44c2.74,0,5.2,0.43,7.38,1.3c2.18,0.87,4.05,2.02,5.6,3.46s2.76,3.12,3.6,5.04
				c0.84,1.92,1.26,3.94,1.26,6.05c0,0.73-0.01,1.49-0.04,2.3c-0.02,0.81-0.13,1.74-0.32,2.79h-24.96c0.05,0.95,0.2,1.85,0.47,2.69
				c0.27,0.84,0.7,1.58,1.3,2.21c0.6,0.63,1.37,1.13,2.33,1.49c0.96,0.36,2.15,0.54,3.58,0.54c1.92,0,3.37-0.31,4.35-0.92
				c0.98-0.61,1.66-1.36,2.03-2.25h9.5c0.71,0,1.24,0.67,1.06,1.35c-0.3,1.14-0.77,2.23-1.41,3.26c-0.89,1.43-2.07,2.68-3.53,3.76
				c-1.46,1.08-3.19,1.93-5.18,2.57c-1.99,0.63-4.24,0.95-6.74,0.95c-3.03,0-5.72-0.45-8.06-1.34c-2.34-0.89-4.3-2.15-5.89-3.78
				c-1.59-1.63-2.79-3.56-3.6-5.8C165.27,43.09,164.86,40.63,164.86,37.93z M175.87,34.27h14.52c0-2.25-0.66-4.03-1.98-5.33
				S185.37,27,183.27,27c-2.15,0-3.92,0.63-5.31,1.88C176.56,30.13,175.87,31.93,175.87,34.27z"/>
			<g>
				<path d="M66.53,21.06c0.38,0.13,0.49,0.63,0.19,0.9c-1.53,1.41-2.51,2.95-2.92,4.9c-0.44,2.15,0.07,4.13,0.99,6
					c0.97,1.97,2.15,3.84,3.23,5.75c0.98,1.74,1.87,3.5,1.86,5.57c-0.02,3.67-2.9,6.18-6.38,5.1c-6.95-2.17-12.06-6.58-14.18-13.7
					c-1.87-6.27,2.21-12.75,8.84-14.67C60.91,20.11,63.63,20.1,66.53,21.06z"/>
				<path d="M70.13,49.46c0.2-0.15,0.41-0.29,0.61-0.44c2.53-1.93,3.46-4.54,2.4-7.54c-0.55-1.56-1.48-2.99-2.26-4.47
					c-1.12-2.13-2.59-4.13-3.31-6.38c-2.04-6.38,2.03-11.13,8.63-10.25c6.29,0.84,11.7,6.75,10.67,13.53
					c-0.17,1.09-0.46,2.22-0.97,3.18C82.49,43.52,77.11,47.52,70.13,49.46z"/>
			</g>
		</g>
	</g>
</g>
<g id="Layer_2">
</g>
</svg>
